HIERARCHY
ROOT Hips
{
	OFFSET 0.000000 0.000000 0.000000 
	CHANNELS 6 Xposition Yposition Zposition Zrotation Yrotation Xrotation
	JOINT LeftUpLeg
	{
		OFFSET 1.363060 -1.794630 0.839290 
		CHANNELS 3 Zrotation Yrotation Xrotation
		JOINT LeftLeg
		{
			OFFSET 2.448110 -6.726130 0.000000 
			CHANNELS 3 Zrotation Yrotation Xrotation
			JOINT LeftFoot
			{
				OFFSET 2.562200 -7.039590 0.000000 
				CHANNELS 3 Zrotation Yrotation Xrotation
				JOINT LeftToeBase
				{
					OFFSET 0.157640 -0.433110 2.322550 
					CHANNELS 3 Zrotation Yrotation Xrotation
					End Site
					{
						OFFSET 0.000000 0.000000 0.000000 
					}
				}
			}
		}
	}
	JOINT RightUpLeg
	{
		OFFSET -1.305520 -1.794630 0.839290 
		CHANNELS 3 Zrotation Yrotation Xrotation
		JOINT RightLeg
		{
			OFFSET -2.542530 -6.985550 0.000000 
			CHANNELS 3 Zrotation Yrotation Xrotation
			JOINT RightFoot
			{
				OFFSET -2.568260 -7.056230 0.000000 
				CHANNELS 3 Zrotation Yrotation Xrotation
				JOINT RightToeBase
				{
					OFFSET -0.164730 -0.452590 2.363150 
					CHANNELS 3 Zrotation Yrotation Xrotation
					End Site
					{
						OFFSET 0.000000 0.000000 0.000000 
					}
				}
			}
		}
	}
	JOINT Spine
	{
		OFFSET 0.028270 2.035590 -0.193380 
		CHANNELS 3 Zrotation Yrotation Xrotation
		JOINT Spine1
		{
			OFFSET 0.056720 2.048850 -0.042750 
			CHANNELS 3 Zrotation Yrotation Xrotation
			JOINT Neck1
			{
				OFFSET -0.054170 1.746240 0.172020 
				CHANNELS 3 Zrotation Yrotation Xrotation
				JOINT Head
				{
					OFFSET 0.104070 1.761360 -0.123970 
					CHANNELS 3 Zrotation Yrotation Xrotation
					End Site
					{
						OFFSET 0.000000 0.000000 0.000000 
					}
				}
			}
			JOINT LeftArm
			{
				OFFSET 3.362410 1.200890 -0.311210 
				CHANNELS 3 Zrotation Yrotation Xrotation
				JOINT LeftForeArm
				{
					OFFSET 4.983000 -0.000000 -0.000000 
					CHANNELS 3 Zrotation Yrotation Xrotation
					JOINT LeftHand
					{
						OFFSET 3.483560 -0.000000 -0.000000 
						CHANNELS 3 Zrotation Yrotation Xrotation
						JOINT LeftHandIndex1
						{
							OFFSET 0.715260 -0.000000 -0.000000 
							CHANNELS 3 Zrotation Yrotation Xrotation
							End Site
							{
								OFFSET 0.000000 0.000000 0.000000 
							}
						}
					}
				}
			}
			JOINT RightArm
			{
				OFFSET -3.136600 1.374050 -0.404650 
				CHANNELS 3 Zrotation Yrotation Xrotation
				JOINT RightForeArm
				{
					OFFSET -5.241900 -0.000000 -0.000000 
					CHANNELS 3 Zrotation Yrotation Xrotation
					JOINT RightHand
					{
						OFFSET -3.444170 -0.000000 -0.000000 
						CHANNELS 3 Zrotation Yrotation Xrotation
						JOINT RightHandIndex1
						{
							OFFSET -0.622530 -0.000000 -0.000000 
							CHANNELS 3 Zrotation Yrotation Xrotation
							End Site
							{
								OFFSET 0.000000 0.000000 0.000000 
							}
						}
					}
				}
			}
		}
	}
}
MOTION
Frames: 16
Frame Time: 0.041667
7.147088 17.050699 26.072647 -0.313967 -20.302624 19.502789 -24.261325 -23.021413 -16.167246 -5.713478 10.739431 19.351081 0.845300 2.762307 6.073841 0.250800 -3.222400 -8.898700 3.998198 55.308816 -27.406204 2.575141 -21.095979 31.991296 -4.434412 9.558538 -1.352468 -0.194700 -2.841600 7.838200 0.154504 -1.507341 -5.274266 2.679891 -0.766369 3.474881 5.687747 -5.235879 10.847882 0.283900 -1.972100 11.472700 -3.991182 7.084656 -40.591157 6.227509 -8.356124 -2.687304 -3.701850 -1.659430 -7.014775 -7.125000 0.000000 0.000000 12.734597 -13.492588 -48.781999 -8.294110 9.187385 -2.452781 1.560237 1.503532 16.990607 7.125000 0.000000 0.000000 
7.211730 17.066106 26.065390 -0.413447 -21.724706 19.652691 -24.469014 -22.567356 -16.074412 -5.732855 10.607742 19.102756 0.539665 3.645434 5.995973 0.201700 -2.891800 -7.977700 4.595479 54.031915 -27.347396 2.577557 -21.033132 32.060905 -3.975953 7.485281 -1.727322 -0.134700 -2.365300 6.516300 0.163451 -1.529405 -5.277246 2.703901 -0.776378 3.464032 5.717605 -5.033932 10.866018 0.286100 -1.868500 11.464100 -4.056832 7.032621 -40.438877 6.251018 -8.404867 -2.703016 -3.642825 -1.677789 -7.128050 -7.125000 0.000000 0.000000 12.863315 -13.450435 -49.032573 -8.387877 9.278891 -2.479696 1.524497 1.571277 17.098102 7.125000 0.000000 0.000000 
7.275257 17.081736 26.058468 -0.505176 -23.148718 19.799840 -24.677093 -22.129250 -15.983728 -5.753454 10.474312 18.842208 0.230778 4.527820 5.910853 0.154400 -2.531600 -6.977300 5.307401 52.606649 -27.246017 2.576661 -20.944907 32.144064 -3.448687 5.380016 -1.991400 -0.104100 -2.080200 5.727300 0.173378 -1.551860 -5.280402 2.732839 -0.784458 3.457134 5.752832 -4.827940 10.889432 0.289600 -1.762000 11.458100 -4.137817 6.994669 -40.242093 6.280013 -8.464269 -2.721493 -3.606380 -1.725014 -7.315901 -7.125000 0.000000 0.000000 12.996405 -13.401860 -49.231441 -8.506577 9.407245 -2.518281 1.485258 1.649350 17.148043 7.125000 0.000000 0.000000 
7.337108 17.096808 26.052215 -0.575960 -24.577630 19.935390 -24.896517 -21.685890 -15.894421 -5.777323 10.333846 18.561826 -0.068978 5.376198 5.832324 0.113100 -2.168600 -5.971800 6.115954 51.027161 -27.103412 2.566926 -20.835363 32.248760 -2.860651 3.252328 -2.186353 -0.092300 -1.959300 5.393200 0.183289 -1.573397 -5.283974 2.771032 -0.790335 3.462291 5.783247 -4.625934 10.931643 0.281700 -1.653600 11.476700 -4.229629 6.965264 -40.011385 6.311698 -8.529166 -2.741626 -3.581680 -1.781695 -7.572880 -7.125000 0.000000 0.000000 13.136294 -13.351830 -49.367815 -8.654087 9.576730 -2.570277 1.439450 1.739135 17.111767 7.125000 0.000000 0.000000 
7.396838 17.111992 26.046410 -0.627448 -26.009366 20.052596 -25.125506 -21.242764 -15.793507 -5.805128 10.181059 18.253194 -0.356934 6.185392 5.765910 0.078300 -1.804800 -4.966600 7.014255 49.293723 -26.922944 2.544007 -20.706614 32.380500 -2.210005 1.080456 -2.359117 -0.091500 -1.951000 5.370400 0.192388 -1.591432 -5.287528 2.821852 -0.792077 3.466007 5.817729 -4.430539 10.975434 0.275400 -1.548200 11.490200 -4.329431 6.941642 -39.743945 6.343392 -8.598343 -2.762347 -3.567581 -1.847810 -7.881227 -7.125000 0.000000 0.000000 13.286968 -13.307491 -49.439215 -8.831279 9.790371 -2.637068 1.392031 1.838580 16.967025 7.125000 0.000000 0.000000 
7.455006 17.127064 26.041274 -0.663931 -27.444634 20.149380 -25.365704 -20.785780 -15.682598 -5.836026 10.016494 17.920048 -0.631847 6.952893 5.709750 0.051900 -1.470800 -4.045200 7.976662 47.419303 -26.717499 2.505263 -20.562590 32.540072 -1.497532 -1.145190 -2.549466 -0.097000 -2.008200 5.528400 0.199957 -1.602474 -5.292453 2.878163 -0.788680 3.464729 5.845314 -4.244867 11.029878 0.259500 -1.445400 11.513900 -4.433118 6.919168 -39.455362 6.372290 -8.664739 -2.781527 -3.566175 -1.919169 -8.207225 -7.125000 0.000000 0.000000 13.448012 -13.273738 -49.421230 -9.040257 10.050775 -2.720530 1.342274 1.948077 16.661538 7.125000 0.000000 0.000000 
7.511386 17.142471 26.036808 -0.701754 -28.879192 20.227271 -25.607111 -20.327279 -15.548358 -5.867653 9.840882 17.566406 -0.906695 7.715111 5.650857 0.035900 -1.222300 -3.360700 8.994606 45.428608 -26.499612 2.449845 -20.406176 32.727025 -0.723879 -3.431797 -2.776602 -0.107900 -2.118200 5.832400 0.208386 -1.610324 -5.297823 2.943313 -0.781109 3.451175 5.871813 -4.050643 11.083511 0.246600 -1.340800 11.530300 -4.541940 6.903759 -39.186304 6.394565 -8.722019 -2.796990 -3.559288 -1.976313 -8.469613 -7.125000 0.000000 0.000000 13.605131 -13.233685 -49.350256 -9.277210 10.350009 -2.819421 1.294054 2.063800 16.223165 7.125000 0.000000 0.000000 
7.566204 17.158102 26.033236 -0.746862 -30.310272 20.286833 -25.845646 -19.876484 -15.386650 -5.898130 9.657238 17.199621 -1.187496 8.487211 5.578589 0.027500 -1.070000 -2.941500 10.042338 43.353912 -26.279394 2.377250 -20.242009 32.939692 0.094059 -5.743302 -3.059042 -0.126000 -2.287900 6.302000 0.217575 -1.615897 -5.303139 3.015186 -0.770011 3.423122 5.901175 -3.845269 11.132076 0.242000 -1.233800 11.534300 -4.654284 6.893700 -38.947683 6.411102 -8.770279 -2.808904 -3.552127 -2.023837 -8.655401 -7.125000 0.000000 0.000000 13.761991 -13.191287 -49.204453 -9.543389 10.691818 -2.935548 1.248317 2.185170 15.641605 7.125000 0.000000 0.000000 
7.619236 17.173509 26.030221 -0.806446 -31.734828 20.336306 -26.072336 -19.446284 -15.201136 -5.927036 9.468481 16.822691 -1.477449 9.278371 5.486986 0.022800 -0.975200 -2.680500 11.090083 41.227059 -26.072179 2.289582 -20.075710 33.174536 0.925760 -8.011392 -3.414695 -0.147500 -2.475100 6.820600 0.226338 -1.616373 -5.307930 3.086001 -0.754999 3.384230 5.931694 -3.634021 11.176231 0.243800 -1.126200 11.529600 -4.764751 6.884013 -38.727651 6.422355 -8.810356 -2.817344 -3.551653 -2.062677 -8.784216 -7.125000 0.000000 0.000000 13.922213 -13.145501 -49.018121 -9.838003 11.071403 -3.068490 1.202580 2.306151 14.977742 7.125000 0.000000 0.000000 
7.670481 17.188469 26.027653 -0.876955 -33.154745 20.383076 -26.288437 -19.042512 -14.999122 -5.954844 9.276039 16.434905 -1.779826 10.097052 5.371369 0.020800 -0.930700 -2.558100 12.094532 39.085839 -25.891174 2.189796 -19.913015 33.428782 1.721832 -10.119664 -3.852146 -0.174800 -2.692900 7.424800 0.233096 -1.607260 -5.313535 3.154910 -0.734503 3.330323 5.967769 -3.422961 11.217874 0.257200 -1.021200 11.518000 -4.873632 6.870541 -38.513492 6.431854 -8.847449 -2.824322 -3.549657 -2.089284 -8.865540 -7.125000 0.000000 0.000000 14.093789 -13.115059 -48.769085 -10.164965 11.494676 -3.220756 1.155939 2.425864 14.251359 7.125000 0.000000 0.000000 
7.719940 17.202760 26.025197 -0.956484 -34.566446 20.436833 -26.494548 -18.663745 -14.788902 -5.982047 9.080617 16.033749 -2.097495 10.953391 5.234111 0.021500 -0.946100 -2.600600 13.028551 36.957640 -25.751232 2.082764 -19.758252 33.699547 2.440584 -11.975337 -4.362137 -0.206800 -2.928000 8.078400 0.235647 -1.587128 -5.319393 3.214350 -0.709215 3.269817 6.008317 -3.218420 11.260574 0.280100 -0.920400 11.503900 -4.971335 6.845159 -38.314796 6.439228 -8.879621 -2.829178 -3.551762 -2.111400 -8.903946 -7.125000 0.000000 0.000000 14.286786 -13.104008 -48.465863 -10.525325 11.962427 -3.393493 1.104726 2.540366 13.502470 7.125000 0.000000 0.000000 
7.767836 17.216827 26.022518 -1.033660 -35.965525 20.496663 -26.701697 -18.302308 -14.574313 -6.010324 8.879684 15.612463 -2.425466 11.836650 5.088934 0.023500 -0.990200 -2.721900 13.869313 34.863615 -25.655074 1.971737 -19.612775 33.985609 3.050513 -13.509220 -4.926099 -0.244400 -3.181200 8.783600 0.233335 -1.558291 -5.326647 3.263468 -0.680732 3.203728 6.048525 -3.026924 11.313110 0.304300 -0.824600 11.502100 -5.055731 6.808717 -38.123553 6.446077 -8.907940 -2.832615 -3.552370 -2.127512 -8.914583 -7.125000 0.000000 0.000000 14.503275 -13.115519 -48.111053 -10.920322 12.473929 -3.587866 1.045216 2.648120 12.758473 7.125000 0.000000 0.000000 
7.813722 17.230671 26.019280 -1.105415 -37.347747 20.570123 -26.905978 -17.947262 -14.366210 -6.040537 8.671046 15.164706 -2.756328 12.730251 4.952051 0.025300 -1.026300 -2.821200 14.603987 32.830856 -25.609888 1.860029 -19.478909 34.280867 3.548734 -14.729157 -5.516653 -0.280300 -3.404900 9.408100 0.228509 -1.526554 -5.335639 3.313116 -0.651263 3.135936 6.088968 -2.843547 11.378049 0.330200 -0.731700 11.516900 -5.134998 6.764675 -37.946187 6.454729 -8.935115 -2.836175 -3.551321 -2.139075 -8.912280 -7.125000 0.000000 0.000000 14.740070 -13.136607 -47.727877 -11.352678 13.028216 -3.804888 0.979420 2.746496 12.053452 7.125000 0.000000 0.000000 
7.857599 17.244515 26.015372 -1.160277 -38.714486 20.654028 -27.112151 -17.599890 -14.167886 -6.073848 8.454061 14.688344 -3.080488 13.610487 4.825904 0.024400 -1.008200 -2.771400 15.229646 30.875266 -25.608189 1.748449 -19.355483 34.578990 3.951305 -15.688537 -6.098768 -0.311000 -3.585300 9.912800 0.222819 -1.497872 -5.345772 3.373179 -0.623084 3.073429 6.126962 -2.662869 11.457092 0.354100 -0.638900 11.551800 -5.211716 6.715992 -37.788041 6.464538 -8.960555 -2.839874 -3.543991 -2.148711 -8.910570 -7.125000 0.000000 0.000000 14.990397 -13.154427 -47.323315 -11.822235 13.623202 -4.045392 0.908706 2.835377 11.378581 7.125000 0.000000 0.000000 
7.899354 17.258582 26.010907 -1.204434 -40.062920 20.754585 -27.310508 -17.251589 -13.989077 -6.108798 8.232598 14.193867 -3.388259 14.449947 4.711106 0.018600 -0.879900 -2.418500 15.754567 29.026050 -25.644549 1.638410 -19.242712 34.869928 4.285319 -16.468643 -6.640608 -0.332300 -3.704900 10.247800 0.215880 -1.468760 -5.356625 3.440197 -0.595056 3.019393 6.159788 -2.487765 11.549384 0.373300 -0.547300 11.606800 -5.286335 6.659100 -37.639197 6.477593 -8.987757 -2.844782 -3.538055 -2.158386 -8.924859 -7.125000 0.000000 0.000000 15.260142 -13.170022 -46.902918 -12.331618 14.260645 -4.311470 0.833403 2.915822 10.716565 7.125000 0.000000 0.000000 
7.938876 17.272761 26.005994 -1.242798 -41.392543 20.873802 -27.494715 -16.899479 -13.836628 -6.143910 8.011701 13.694394 -3.676359 15.236528 4.592071 0.011900 -0.705100 -1.937700 16.186619 27.310260 -25.709368 1.530557 -19.141071 35.144068 4.583009 -17.159540 -7.106416 -0.338700 -3.740100 10.346700 0.210931 -1.446648 -5.368123 3.521224 -0.570049 2.973156 6.188722 -2.305697 11.650957 0.390000 -0.452500 11.674800 -5.366713 6.602756 -37.522944 6.494560 -9.016823 -2.851542 -3.525125 -2.162949 -8.940064 -7.125000 0.000000 0.000000 15.533140 -13.174963 -46.449732 -12.879685 14.938850 -4.604436 0.759390 2.991754 10.055046 7.125000 0.000000 0.000000 
